<svg xmlns="http://www.w3.org/2000/svg" xmlns:xlink="http://www.w3.org/1999/xlink" viewBox="0 0 1487.21 1619.81"><defs><style>.cls-1{fill:url(#linear-gradient);}.cls-2{fill:url(#linear-gradient-2);}.cls-3{fill:url(#linear-gradient-3);}.cls-4{fill:url(#linear-gradient-4);}.cls-5{fill:url(#linear-gradient-5);}.cls-6{fill:url(#linear-gradient-6);}.cls-10,.cls-7,.cls-8{fill:#dd1212;}.cls-7{clip-rule:evenodd;}.cls-8{fill-rule:evenodd;}.cls-9{clip-path:url(#clip-path);}.cls-11{clip-path:url(#clip-path-2);}.cls-12{clip-path:url(#clip-path-3);}.cls-13{mask:url(#mask);}.cls-14{mask:url(#mask-2);}.cls-15{mask:url(#mask-3);}.cls-16{mask:url(#mask-4);}.cls-17{mask:url(#mask-5);}.cls-18{mask:url(#mask-6);}</style><linearGradient id="linear-gradient" x1="-572.35" y1="2857.38" x2="-891.39" y2="1039.47" gradientTransform="translate(1024.99 -586.46)" gradientUnits="userSpaceOnUse"><stop offset="0" stop-color="#fff"/><stop offset="1"/></linearGradient><linearGradient id="linear-gradient-2" x1="733.55" y1="430.97" x2="-441.07" y2="2119.7" gradientTransform="translate(1084 -588.7)" xlink:href="#linear-gradient"/><linearGradient id="linear-gradient-3" x1="-1134.24" y1="613.65" x2="104.54" y2="1310.43" gradientTransform="translate(1028.08 -716.7)" xlink:href="#linear-gradient"/><linearGradient id="linear-gradient-4" x1="-489.85" y1="671.11" x2="-539.39" y2="1203.78" gradientTransform="translate(1028.08 -757.42)" xlink:href="#linear-gradient"/><linearGradient id="linear-gradient-5" x1="680.27" y1="1419.83" x2="-177.6" y2="1642.79" gradientTransform="translate(1150.49 -619.82)" xlink:href="#linear-gradient"/><linearGradient id="linear-gradient-6" x1="-1173.35" y1="1949.1" x2="-718.11" y2="1772.6" gradientTransform="translate(1025.04 -586.46)" xlink:href="#linear-gradient"/><clipPath id="clip-path"><path class="cls-7" d="M347.21,819.51V637.57c0-160.24,33.35-236.4-119-271.2-68.26-15.58-145-27.54-216.08-22.32A542.3,542.3,0,0,0,3.19,411.4c-3.19,45-1.67,89.76-1.67,134.81v660.1c0,149.69,65.65,287.8,202,360.81,80.15,42.91,164.2,52.69,246.52,38.15-131.42-237.18-102.83-526.1-102.83-785.76"/></clipPath><clipPath id="clip-path-2"><path class="cls-7" d="M763,579.47c160.88,92.88,314.53,264.4,451.43,117.3,45-48.4,92.8-107.71,126.67-170.83h0a542,542,0,0,0-52.66-40.36c-37.41-25.27-76.9-46.33-115.91-68.85l-571.68-330C471.67,12.11,318.2,0,187.36,81.22c-84.22,52.29-136.65,128.31-163.51,216,97.46-4.67,204.29,20.19,283.62,44.78C473.93,393.61,611.79,492.18,763,579.47"/></clipPath><clipPath id="clip-path-3"><path class="cls-7" d="M1482.27,810.17c-3.18-99.4-43-183-105.92-250.26C1227.46,825.3,1013.2,915.08,763,1059.55l-170.17,98.24c-94.61,54.63-200.31,76.92-184.65,167.72,13.72,79.49,39.3,184.38,86,269.62a528.36,528.36,0,0,0,87.38-33.59c40.59-19.75,78.58-43.44,117.59-66l571.66-330c129.63-74.85,216.41-200.76,211.47-355.36"/></clipPath><mask id="mask" x="1.16" y="342.8" width="448.88" height="1268.77" maskUnits="userSpaceOnUse"><rect class="cls-1" x="1.16" y="342.8" width="448.87" height="1268.77"/></mask><mask id="mask-2" x="434.23" y="559.91" width="1048.24" height="1035.22" maskUnits="userSpaceOnUse"><rect class="cls-2" x="434.23" y="559.91" width="1048.24" height="1035.21"/></mask><mask id="mask-3" x="23.85" y="25.35" width="1317.24" height="630.36" maskUnits="userSpaceOnUse"><rect class="cls-3" x="23.85" y="25.35" width="1317.24" height="630.36"/></mask><mask id="mask-4" x="23.85" y="25.34" width="977.16" height="331.57" maskUnits="userSpaceOnUse"><rect class="cls-4" x="23.85" y="25.34" width="977.16" height="331.57"/></mask><mask id="mask-5" x="922.24" y="559.91" width="560.23" height="806.86" maskUnits="userSpaceOnUse"><rect class="cls-5" x="922.24" y="559.91" width="560.23" height="806.86"/></mask><mask id="mask-6" x="1.52" y="823.63" width="448.52" height="787.95" maskUnits="userSpaceOnUse"><rect class="cls-6" x="1.52" y="823.63" width="448.51" height="787.95"/></mask></defs><title>logoAtivo 1</title><g id="Camada_2" data-name="Camada 2"><g id="Layer_1" data-name="Layer 1"><path class="cls-8" d="M347.21,819.51V637.57c0-160.24,33.35-236.4-119-271.2-68.26-15.58-145-27.54-216.08-22.32A542.3,542.3,0,0,0,3.19,411.4c-3.19,45-1.67,89.76-1.67,134.81v660.1c0,149.69,65.65,287.8,202,360.81,80.15,42.91,164.2,52.69,246.52,38.15-131.42-237.18-102.83-526.1-102.83-785.76"/><g class="cls-9"><rect class="cls-10" y="338.83" width="450.04" height="1280.98"/></g><path class="cls-8" d="M763,579.47c160.88,92.88,314.53,264.4,451.43,117.3,45-48.4,92.8-107.71,126.67-170.83h0a542,542,0,0,0-52.66-40.36c-37.41-25.27-76.9-46.33-115.91-68.85l-571.68-330C471.67,12.11,318.2,0,187.36,81.22c-84.22,52.29-136.65,128.31-163.51,216,97.46-4.67,204.29,20.19,283.62,44.78C473.93,393.61,611.79,492.18,763,579.47"/><g class="cls-11"><rect class="cls-10" x="23.85" width="1317.23" height="843.87"/></g><path class="cls-8" d="M1482.27,810.17c-3.18-99.4-43-183-105.92-250.26C1227.46,825.3,1013.2,915.08,763,1059.55l-170.17,98.24c-94.61,54.63-200.31,76.92-184.65,167.72,13.72,79.49,39.3,184.38,86,269.62a528.36,528.36,0,0,0,87.38-33.59c40.59-19.75,78.58-43.44,117.59-66l571.66-330c129.63-74.85,216.41-200.76,211.47-355.36"/><g class="cls-12"><rect class="cls-10" x="392.5" y="559.91" width="1094.71" height="1035.22"/></g><g class="cls-13"><path class="cls-8" d="M450,1605.27C96.72,1475.43,92.11,701.46,199.17,360.1c-60.55-12.32-125.93-20.54-187.06-16.05A542.3,542.3,0,0,0,3.19,411.4c-3.19,45-1.67,89.76-1.67,134.81v660.1c0,149.69,65.65,287.8,202,360.81,80.15,42.91,164.2,52.69,246.52,38.15"/></g><g class="cls-14"><path class="cls-8" d="M1376.35,559.91c80.55,376.41-603.21,804-942.12,882.43,14.5,51.84,33.95,105.35,59.94,152.79a528.36,528.36,0,0,0,87.38-33.59c40.59-19.75,78.58-43.44,117.59-66l571.66-330c129.63-74.85,216.41-200.76,211.47-355.36-3.18-99.4-43-183-105.92-250.26"/></g><g class="cls-15"><path class="cls-8" d="M23.85,297.23c280.62-255.77,979,105.63,1227,358.47,33.18-39.35,65.44-83.53,90.25-129.75-53.55-46.64-107.46-73.93-168.57-109.21l-571.68-330C471.67,12.11,318.2,0,187.36,81.22c-84.22,52.29-136.65,128.31-163.51,216"/></g><g class="cls-16"><path class="cls-8" d="M652.89,287c93.06-4,208.65,2.8,348.12,30.76l-400.18-231C471.67,12.11,318.2,0,187.36,81.22c-84.22,52.29-136.65,128.31-163.51,216,97.46-4.67,204.29,20.19,283.62,44.78q22.29,6.92,43.92,14.9S447,295.73,652.89,287"/></g><g class="cls-17"><path class="cls-8" d="M1376.35,559.91c-56.32,100.38-122,175.64-195.42,238.23,0,0-22.26,131.19-97.07,297.28-38.55,85.58-91,180.41-161.62,271.35l348.56-201.24c129.63-74.85,216.41-200.76,211.47-355.36-3.18-99.4-43-183-105.92-250.26"/></g><g class="cls-18"><path class="cls-8" d="M357.7,1305.89s-98-55.29-194.88-171.84C99.21,1057.54,36.1,954.63,1.52,823.63v382.68c0,149.69,65.65,287.8,202,360.81,80.15,42.91,164.2,52.69,246.52,38.15-51.76-93.42-78.7-194.85-92.34-299.38"/></g></g></g></svg>